# xmcd CD database file
#
# Track frame offsets:
#	150
#	16201
#	31244
#	54422
#	74291
#	92509
#	109964
#	128289
#	147540
#	165170
#	184728
#
# Disc length: 2739 seconds
#
# Revision: 2
# Processed by: cddbd v1.5.2PL0 Copyright (c) Steve Scherf et al.
# Submitted via: CDex 1.70beta3
#
DISCID=850ab10b
DTITLE=Stan Bush - Shine
DYEAR=2004
DGENRE=Melodic Hard Rock
TTITLE0=Shine
TTITLE1=Falling
TTITLE2=I Will Be There
TTITLE3=I Turn To You
TTITLE4=What You Mean Tonight
TTITLE5=Say It Ain't Love
TTITLE6=Have You Ever Believed
TTITLE7=Do It All Over
TTITLE8=The Chance You Take
TTITLE9=When I Dream
TTITLE10=Don't Say It's Over (Bonus Tracks)
EXTD=YEAR: 2004
EXTT0=
EXTT1=
EXTT2=
EXTT3=
EXTT4=
EXTT5=
EXTT6=
EXTT7=
EXTT8=
EXTT9=
EXTT10=
PLAYORDER=
